<svg width="30" height="30" viewBox="0 0 30 30" fill="none" xmlns="http://www.w3.org/2000/svg">
<g clip-path="url(#clip0_10_15)">
<path d="M14.9986 1.00012C14.4471 1.00874 14.0067 1.46226 14.0143 2.01379V5.01379C14.0092 5.37443 14.1986 5.70987 14.5101 5.89168C14.8216 6.07349 15.2069 6.07349 15.5184 5.89168C15.8299 5.70987 16.0193 5.37443 16.0142 5.01379V2.01379C16.0179 1.74349 15.9121 1.4832 15.7207 1.29224C15.5294 1.10127 15.2689 0.995902 14.9986 1.00012ZM5.81113 4.81262C5.40456 4.81352 5.039 5.06046 4.88638 5.43729C4.73376 5.81413 4.82446 6.24585 5.11582 6.52941L7.23691 8.6505C7.48773 8.91173 7.86016 9.01696 8.2106 8.9256C8.56104 8.83424 8.83471 8.56057 8.92606 8.21014C9.01742 7.8597 8.91219 7.48726 8.65096 7.23644L6.52988 5.11535C6.34114 4.92133 6.08181 4.8121 5.81113 4.81262ZM24.1861 4.81262C23.9263 4.82036 23.6797 4.92894 23.4986 5.11535L21.3775 7.23644C21.1163 7.48726 21.0111 7.8597 21.1024 8.21014C21.1938 8.56057 21.4675 8.83424 21.8179 8.9256C22.1683 9.01696 22.5408 8.91173 22.7916 8.6505L24.9127 6.52941C25.2084 6.24192 25.2974 5.80234 25.1366 5.4225C24.9759 5.04265 24.5984 4.80046 24.1861 4.81262ZM15.0142 8.01379C11.1483 8.01379 8.01425 11.1478 8.01425 15.0138C8.01425 18.8798 11.1483 22.0138 15.0142 22.0138C18.8802 22.0138 22.0142 18.8798 22.0142 15.0138C22.0142 11.1478 18.8802 8.01379 15.0142 8.01379ZM2.01425 14.0138C1.65361 14.0087 1.31817 14.1982 1.13636 14.5097C0.954548 14.8212 0.954548 15.2064 1.13636 15.5179C1.31817 15.8294 1.65361 16.0189 2.01425 16.0138H5.01425C5.37489 16.0189 5.71033 15.8294 5.89214 15.5179C6.07395 15.2064 6.07395 14.8211 5.89214 14.5097C5.71033 14.1982 5.37489 14.0087 5.01425 14.0138H2.01425ZM25.0142 14.0138C24.6536 14.0087 24.3182 14.1982 24.1364 14.5097C23.9545 14.8212 23.9545 15.2064 24.1364 15.5179C24.3182 15.8294 24.6536 16.0189 25.0142 16.0138H28.0142C28.3749 16.0189 28.7103 15.8294 28.8921 15.5179C29.0739 15.2064 29.0739 14.8211 28.8921 14.5097C28.7103 14.1982 28.3749 14.0087 28.0142 14.0138H25.0142ZM7.92441 21.0743C7.66461 21.0821 7.41803 21.1907 7.23691 21.3771L5.11582 23.4982C4.85459 23.749 4.74936 24.1214 4.84072 24.4719C4.93208 24.8223 5.20575 25.096 5.55618 25.1873C5.90662 25.2787 6.27906 25.1734 6.52988 24.9122L8.65096 22.7911C8.94672 22.5036 9.03566 22.0641 8.87489 21.6842C8.71414 21.3044 8.33669 21.0622 7.92441 21.0743ZM22.0748 21.0743C21.6679 21.0744 21.3016 21.3211 21.1485 21.6981C20.9953 22.0751 21.0859 22.5073 21.3775 22.7911L23.4986 24.9122C23.7494 25.1735 24.1219 25.2787 24.4723 25.1873C24.8228 25.096 25.0964 24.8223 25.1878 24.4719C25.2791 24.1214 25.1739 23.749 24.9127 23.4982L22.7916 21.3771C22.6033 21.1835 22.3448 21.0743 22.0748 21.0743ZM14.9986 24.0001C14.4471 24.0087 14.0067 24.4623 14.0143 25.0138V28.0138C14.0092 28.3744 14.1986 28.7099 14.5101 28.8917C14.8216 29.0735 15.2069 29.0735 15.5184 28.8917C15.8299 28.7099 16.0193 28.3744 16.0142 28.0138V25.0138C16.0179 24.7435 15.9121 24.4832 15.7207 24.2922C15.5294 24.1013 15.2689 23.9959 14.9986 24.0001Z" fill="#F4CC07"/>
</g>
<defs>
<clipPath id="clip0_10_15">
<rect width="30" height="30" fill="white"/>
</clipPath>
</defs>
</svg>
