<svg width="142" height="142" viewBox="0 0 142 142" fill="none" xmlns="http://www.w3.org/2000/svg">
<g clip-path="url(#clip0_6_735)">
<path fill-rule="evenodd" clip-rule="evenodd" d="M92 29L88.2941 70.1579L71 75L53.7059 70.1579L50 29H92ZM60.8716 55.6316H65.8127L65.9334 58.6579L71 60.3507L76.0666 58.6579L76.4334 53.2105H65.5666L65.3157 48.3684H76.6843L77.051 43.5263H60.0078L59.6363 38.6842H82.2431L81.6255 48.3684L80.7569 62.2895L71 65.4387L61.2431 62.2895L60.8716 55.6316Z" fill="white"/>
</g>
<rect x="0.5" y="0.5" width="141" height="141" rx="7.5" stroke="#70B966"/>
<path d="M64.5312 112.453H65.4922C65.4141 113.219 65.2031 113.88 64.8594 114.438C64.5156 114.99 64.0469 115.414 63.4531 115.711C62.8594 116.008 62.1432 116.156 61.3047 116.156C60.6589 116.156 60.0729 116.034 59.5469 115.789C59.026 115.544 58.5781 115.198 58.2031 114.75C57.8281 114.297 57.5391 113.755 57.3359 113.125C57.1328 112.495 57.0312 111.794 57.0312 111.023V109.602C57.0312 108.831 57.1328 108.133 57.3359 107.508C57.5391 106.878 57.8307 106.336 58.2109 105.883C58.5911 105.43 59.0469 105.081 59.5781 104.836C60.1094 104.591 60.7083 104.469 61.375 104.469C62.1823 104.469 62.8802 104.617 63.4688 104.914C64.0573 105.206 64.5208 105.628 64.8594 106.18C65.2031 106.732 65.4141 107.398 65.4922 108.18H64.5312C64.4583 107.565 64.2969 107.044 64.0469 106.617C63.7969 106.19 63.4505 105.865 63.0078 105.641C62.5703 105.411 62.026 105.297 61.375 105.297C60.8438 105.297 60.3698 105.398 59.9531 105.602C59.5365 105.805 59.1823 106.096 58.8906 106.477C58.599 106.852 58.375 107.302 58.2188 107.828C58.0677 108.354 57.9922 108.94 57.9922 109.586V111.023C57.9922 111.648 58.0651 112.224 58.2109 112.75C58.3568 113.276 58.5703 113.732 58.8516 114.117C59.138 114.503 59.487 114.802 59.8984 115.016C60.3099 115.229 60.7786 115.336 61.3047 115.336C61.9766 115.336 62.5365 115.229 62.9844 115.016C63.4375 114.797 63.7891 114.474 64.0391 114.047C64.2891 113.62 64.4531 113.089 64.5312 112.453ZM74.2734 113.203C74.2734 112.891 74.2214 112.612 74.1172 112.367C74.013 112.122 73.8411 111.904 73.6016 111.711C73.3672 111.513 73.0495 111.331 72.6484 111.164C72.2526 110.992 71.7578 110.823 71.1641 110.656C70.5964 110.495 70.0833 110.318 69.625 110.125C69.1667 109.932 68.7734 109.711 68.4453 109.461C68.1224 109.211 67.875 108.919 67.7031 108.586C67.5312 108.247 67.4453 107.854 67.4453 107.406C67.4453 106.969 67.5391 106.57 67.7266 106.211C67.9141 105.852 68.1771 105.542 68.5156 105.281C68.8594 105.021 69.263 104.82 69.7266 104.68C70.1953 104.539 70.7083 104.469 71.2656 104.469C72.0625 104.469 72.75 104.62 73.3281 104.922C73.9115 105.224 74.362 105.633 74.6797 106.148C75.0026 106.659 75.1641 107.232 75.1641 107.867H74.2031C74.2031 107.372 74.0859 106.932 73.8516 106.547C73.6224 106.156 73.2891 105.852 72.8516 105.633C72.4193 105.409 71.8906 105.297 71.2656 105.297C70.6406 105.297 70.1146 105.393 69.6875 105.586C69.2656 105.773 68.9453 106.026 68.7266 106.344C68.513 106.656 68.4062 107.005 68.4062 107.391C68.4062 107.661 68.4583 107.911 68.5625 108.141C68.6667 108.365 68.8359 108.576 69.0703 108.773C69.3099 108.966 69.625 109.148 70.0156 109.32C70.4062 109.487 70.888 109.646 71.4609 109.797C72.0651 109.964 72.6016 110.148 73.0703 110.352C73.5391 110.555 73.9349 110.789 74.2578 111.055C74.5807 111.315 74.8255 111.62 74.9922 111.969C75.1589 112.318 75.2422 112.724 75.2422 113.188C75.2422 113.651 75.1432 114.068 74.9453 114.438C74.7526 114.802 74.4792 115.112 74.125 115.367C73.776 115.622 73.362 115.818 72.8828 115.953C72.4089 116.089 71.8906 116.156 71.3281 116.156C70.8229 116.156 70.3203 116.091 69.8203 115.961C69.3203 115.831 68.862 115.63 68.4453 115.359C68.0339 115.083 67.7031 114.729 67.4531 114.297C67.2083 113.865 67.0859 113.349 67.0859 112.75H68.0391C68.0391 113.229 68.1354 113.633 68.3281 113.961C68.5208 114.289 68.776 114.555 69.0938 114.758C69.4167 114.961 69.7708 115.109 70.1562 115.203C70.5469 115.292 70.9375 115.336 71.3281 115.336C71.9271 115.336 72.4453 115.247 72.8828 115.07C73.3255 114.893 73.6667 114.646 73.9062 114.328C74.151 114.005 74.2734 113.63 74.2734 113.203ZM83.7578 113.203C83.7578 112.891 83.7057 112.612 83.6016 112.367C83.4974 112.122 83.3255 111.904 83.0859 111.711C82.8516 111.513 82.5339 111.331 82.1328 111.164C81.737 110.992 81.2422 110.823 80.6484 110.656C80.0807 110.495 79.5677 110.318 79.1094 110.125C78.651 109.932 78.2578 109.711 77.9297 109.461C77.6068 109.211 77.3594 108.919 77.1875 108.586C77.0156 108.247 76.9297 107.854 76.9297 107.406C76.9297 106.969 77.0234 106.57 77.2109 106.211C77.3984 105.852 77.6615 105.542 78 105.281C78.3438 105.021 78.7474 104.82 79.2109 104.68C79.6797 104.539 80.1927 104.469 80.75 104.469C81.5469 104.469 82.2344 104.62 82.8125 104.922C83.3958 105.224 83.8464 105.633 84.1641 106.148C84.487 106.659 84.6484 107.232 84.6484 107.867H83.6875C83.6875 107.372 83.5703 106.932 83.3359 106.547C83.1068 106.156 82.7734 105.852 82.3359 105.633C81.9036 105.409 81.375 105.297 80.75 105.297C80.125 105.297 79.599 105.393 79.1719 105.586C78.75 105.773 78.4297 106.026 78.2109 106.344C77.9974 106.656 77.8906 107.005 77.8906 107.391C77.8906 107.661 77.9427 107.911 78.0469 108.141C78.151 108.365 78.3203 108.576 78.5547 108.773C78.7943 108.966 79.1094 109.148 79.5 109.32C79.8906 109.487 80.3724 109.646 80.9453 109.797C81.5495 109.964 82.0859 110.148 82.5547 110.352C83.0234 110.555 83.4193 110.789 83.7422 111.055C84.0651 111.315 84.3099 111.62 84.4766 111.969C84.6432 112.318 84.7266 112.724 84.7266 113.188C84.7266 113.651 84.6276 114.068 84.4297 114.438C84.237 114.802 83.9635 115.112 83.6094 115.367C83.2604 115.622 82.8464 115.818 82.3672 115.953C81.8932 116.089 81.375 116.156 80.8125 116.156C80.3073 116.156 79.8047 116.091 79.3047 115.961C78.8047 115.831 78.3464 115.63 77.9297 115.359C77.5182 115.083 77.1875 114.729 76.9375 114.297C76.6927 113.865 76.5703 113.349 76.5703 112.75H77.5234C77.5234 113.229 77.6198 113.633 77.8125 113.961C78.0052 114.289 78.2604 114.555 78.5781 114.758C78.901 114.961 79.2552 115.109 79.6406 115.203C80.0312 115.292 80.4219 115.336 80.8125 115.336C81.4115 115.336 81.9297 115.247 82.3672 115.07C82.8099 114.893 83.151 114.646 83.3906 114.328C83.6354 114.005 83.7578 113.63 83.7578 113.203Z" fill="white"/>
<defs>
<clipPath id="clip0_6_735">
<rect width="50" height="50" fill="white" transform="translate(46 25)"/>
</clipPath>
</defs>
</svg>
