<svg width="142" height="142" viewBox="0 0 142 142" fill="none" xmlns="http://www.w3.org/2000/svg">
<g clip-path="url(#clip0_6_734)">
<path d="M91.7316 32.3242C91.5398 32.1172 91.2642 32 90.9766 32H51.0234C50.7358 32 50.4601 32.1172 50.2684 32.3242C50.0727 32.5312 49.9768 32.8086 50.0048 33.0898L53.6038 72.5156C53.6398 72.9297 53.9354 73.2734 54.3428 73.3906L70.7164 77.9609C70.8043 77.9883 70.9001 78 70.996 78C71.0919 78 71.1837 77.9883 71.2756 77.9609L87.6612 73.3906C88.0686 73.2734 88.3602 72.9297 88.4002 72.5156L91.9952 33.0898C92.0232 32.8086 91.9273 32.5312 91.7316 32.3242ZM83.1154 45.918H63.8777L64.3371 51.0078H82.652L81.2779 66.0508L70.992 69.0898L70.8921 69.0586L60.7261 66.0469L60.1708 59.918H65.152L65.3677 62.2969L71.0519 63.4609L76.6323 62.2969L77.2274 55.8594H59.7993L58.4452 41.0547H83.5588L83.1154 45.918Z" fill="white"/>
</g>
<rect x="0.5" y="0.5" width="141" height="141" rx="7.5" stroke="#70B966"/>
<path d="M59.0938 109.727V110.547H52.1797V109.727H59.0938ZM52.4062 104.625V116H51.4453V104.625H52.4062ZM59.8672 104.625V116H58.9062V104.625H59.8672ZM66.3516 104.625V116H65.3984V104.625H66.3516ZM70.25 104.625V105.453H61.5078V104.625H70.25ZM72.3984 104.625H73.3672L77.5703 114.641L81.7812 104.625H82.7422L77.9375 116H77.2031L72.3984 104.625ZM72.1016 104.625H72.9531L73.0547 111.031V116H72.1016V104.625ZM82.2031 104.625H83.0547V116H82.0938V111.031L82.2031 104.625ZM92.5234 115.18V116H86.625V115.18H92.5234ZM86.9062 104.625V116H85.9453V104.625H86.9062Z" fill="white"/>
<defs>
<clipPath id="clip0_6_734">
<rect width="50" height="50" fill="white" transform="translate(46 30)"/>
</clipPath>
</defs>
</svg>
