<svg width="142" height="142" viewBox="0 0 142 142" fill="none" xmlns="http://www.w3.org/2000/svg">
<path d="M75.8274 63.4931C77.2317 66.624 78.7578 69.624 81.9906 69.624C84.7059 69.624 86.1305 67.7717 86.1305 65.209C86.1305 62.1421 84.6572 61.053 81.67 59.2675L80.0322 58.3093C75.3058 55.5572 72.1623 52.1087 72.1623 44.8245C72.1623 38.1114 75.9065 33.0028 81.7572 33.0028C85.9235 33.0028 88.9169 34.9833 91.0761 40.1699L85.9743 44.6463C84.852 41.8942 83.6385 40.8106 81.7572 40.8106C79.8374 40.8106 78.6218 42.4736 78.6218 44.6463C78.6218 47.3315 79.8395 48.4179 82.6502 50.0808L84.2879 51.039C89.8585 54.2953 93 57.6212 93 65.0976C93 73.1533 88.3649 77.5684 82.1428 77.5684C76.0567 77.5684 72.6007 73.3761 70.6768 68.1867L75.8274 63.4931ZM52.315 63.7215C53.3418 66.2452 54.9024 68.1867 57.1469 68.1867C59.294 68.1867 60.5299 67.0224 60.5299 62.4959V33H67.2938V63.9221C67.2938 73.3009 63.3304 77.5684 57.5426 77.5684C52.3129 77.5684 48.5383 72.7048 47 68.1867L52.315 63.7215Z" fill="white"/>
<rect x="0.5" y="0.5" width="141" height="141" rx="7.5" stroke="#70B966"/>
<path d="M39.4688 112.609V104.625H40.4297V112.609C40.4297 113.375 40.2786 114.021 39.9766 114.547C39.6797 115.073 39.2734 115.474 38.7578 115.75C38.2422 116.021 37.6536 116.156 36.9922 116.156C36.3151 116.156 35.7161 116.036 35.1953 115.797C34.6797 115.557 34.2786 115.195 33.9922 114.711C33.7057 114.221 33.5625 113.604 33.5625 112.859H34.5234C34.5234 113.406 34.6198 113.865 34.8125 114.234C35.0104 114.599 35.2943 114.875 35.6641 115.062C36.0339 115.245 36.4766 115.336 36.9922 115.336C37.4557 115.336 37.8724 115.234 38.2422 115.031C38.6172 114.823 38.9141 114.518 39.1328 114.117C39.3568 113.711 39.4688 113.208 39.4688 112.609ZM48.1797 114.484V110.125C48.1797 109.724 48.0964 109.378 47.9297 109.086C47.763 108.794 47.5182 108.57 47.1953 108.414C46.8724 108.258 46.474 108.18 46 108.18C45.5625 108.18 45.1719 108.258 44.8281 108.414C44.4896 108.565 44.2214 108.771 44.0234 109.031C43.8307 109.286 43.7344 109.57 43.7344 109.883L42.7969 109.875C42.7969 109.557 42.875 109.25 43.0312 108.953C43.1875 108.656 43.4089 108.391 43.6953 108.156C43.9818 107.922 44.3229 107.737 44.7188 107.602C45.1198 107.461 45.5599 107.391 46.0391 107.391C46.6432 107.391 47.1745 107.492 47.6328 107.695C48.0964 107.898 48.4583 108.203 48.7188 108.609C48.9792 109.016 49.1094 109.526 49.1094 110.141V114.227C49.1094 114.518 49.1302 114.82 49.1719 115.133C49.2188 115.445 49.2839 115.703 49.3672 115.906V116H48.375C48.3125 115.812 48.263 115.578 48.2266 115.297C48.1953 115.01 48.1797 114.74 48.1797 114.484ZM48.3984 111.078L48.4141 111.797H46.5781C46.099 111.797 45.6693 111.841 45.2891 111.93C44.9141 112.013 44.5964 112.138 44.3359 112.305C44.0755 112.466 43.875 112.661 43.7344 112.891C43.599 113.12 43.5312 113.38 43.5312 113.672C43.5312 113.974 43.6068 114.25 43.7578 114.5C43.9141 114.75 44.1328 114.951 44.4141 115.102C44.7005 115.247 45.0391 115.32 45.4297 115.32C45.9505 115.32 46.4089 115.224 46.8047 115.031C47.2057 114.839 47.5365 114.586 47.7969 114.273C48.0573 113.961 48.2318 113.62 48.3203 113.25L48.7266 113.789C48.6589 114.049 48.5339 114.318 48.3516 114.594C48.1745 114.865 47.9427 115.12 47.6562 115.359C47.3698 115.594 47.0312 115.786 46.6406 115.938C46.2552 116.083 45.8177 116.156 45.3281 116.156C44.776 116.156 44.2943 116.052 43.8828 115.844C43.4766 115.635 43.1589 115.352 42.9297 114.992C42.7057 114.628 42.5938 114.216 42.5938 113.758C42.5938 113.341 42.6823 112.969 42.8594 112.641C43.0365 112.307 43.2917 112.026 43.625 111.797C43.9635 111.562 44.3698 111.385 44.8438 111.266C45.3229 111.141 45.8594 111.078 46.4531 111.078H48.3984ZM53.9844 115.102L56.6953 107.547H57.6562L54.4922 116H53.8125L53.9844 115.102ZM51.5312 107.547L54.2734 115.125L54.4219 116H53.7344L50.5625 107.547H51.5312ZM64.2109 114.484V110.125C64.2109 109.724 64.1276 109.378 63.9609 109.086C63.7943 108.794 63.5495 108.57 63.2266 108.414C62.9036 108.258 62.5052 108.18 62.0312 108.18C61.5938 108.18 61.2031 108.258 60.8594 108.414C60.5208 108.565 60.2526 108.771 60.0547 109.031C59.862 109.286 59.7656 109.57 59.7656 109.883L58.8281 109.875C58.8281 109.557 58.9062 109.25 59.0625 108.953C59.2188 108.656 59.4401 108.391 59.7266 108.156C60.013 107.922 60.3542 107.737 60.75 107.602C61.151 107.461 61.5911 107.391 62.0703 107.391C62.6745 107.391 63.2057 107.492 63.6641 107.695C64.1276 107.898 64.4896 108.203 64.75 108.609C65.0104 109.016 65.1406 109.526 65.1406 110.141V114.227C65.1406 114.518 65.1615 114.82 65.2031 115.133C65.25 115.445 65.3151 115.703 65.3984 115.906V116H64.4062C64.3438 115.812 64.2943 115.578 64.2578 115.297C64.2266 115.01 64.2109 114.74 64.2109 114.484ZM64.4297 111.078L64.4453 111.797H62.6094C62.1302 111.797 61.7005 111.841 61.3203 111.93C60.9453 112.013 60.6276 112.138 60.3672 112.305C60.1068 112.466 59.9062 112.661 59.7656 112.891C59.6302 113.12 59.5625 113.38 59.5625 113.672C59.5625 113.974 59.638 114.25 59.7891 114.5C59.9453 114.75 60.1641 114.951 60.4453 115.102C60.7318 115.247 61.0703 115.32 61.4609 115.32C61.9818 115.32 62.4401 115.224 62.8359 115.031C63.237 114.839 63.5677 114.586 63.8281 114.273C64.0885 113.961 64.263 113.62 64.3516 113.25L64.7578 113.789C64.6901 114.049 64.5651 114.318 64.3828 114.594C64.2057 114.865 63.974 115.12 63.6875 115.359C63.401 115.594 63.0625 115.786 62.6719 115.938C62.2865 116.083 61.849 116.156 61.3594 116.156C60.8073 116.156 60.3255 116.052 59.9141 115.844C59.5078 115.635 59.1901 115.352 58.9609 114.992C58.737 114.628 58.625 114.216 58.625 113.758C58.625 113.341 58.7135 112.969 58.8906 112.641C59.0677 112.307 59.3229 112.026 59.6562 111.797C59.9948 111.562 60.401 111.385 60.875 111.266C61.3542 111.141 61.8906 111.078 62.4844 111.078H64.4297ZM74.3047 113.203C74.3047 112.891 74.2526 112.612 74.1484 112.367C74.0443 112.122 73.8724 111.904 73.6328 111.711C73.3984 111.513 73.0807 111.331 72.6797 111.164C72.2839 110.992 71.7891 110.823 71.1953 110.656C70.6276 110.495 70.1146 110.318 69.6562 110.125C69.1979 109.932 68.8047 109.711 68.4766 109.461C68.1536 109.211 67.9062 108.919 67.7344 108.586C67.5625 108.247 67.4766 107.854 67.4766 107.406C67.4766 106.969 67.5703 106.57 67.7578 106.211C67.9453 105.852 68.2083 105.542 68.5469 105.281C68.8906 105.021 69.2943 104.82 69.7578 104.68C70.2266 104.539 70.7396 104.469 71.2969 104.469C72.0938 104.469 72.7812 104.62 73.3594 104.922C73.9427 105.224 74.3932 105.633 74.7109 106.148C75.0339 106.659 75.1953 107.232 75.1953 107.867H74.2344C74.2344 107.372 74.1172 106.932 73.8828 106.547C73.6536 106.156 73.3203 105.852 72.8828 105.633C72.4505 105.409 71.9219 105.297 71.2969 105.297C70.6719 105.297 70.1458 105.393 69.7188 105.586C69.2969 105.773 68.9766 106.026 68.7578 106.344C68.5443 106.656 68.4375 107.005 68.4375 107.391C68.4375 107.661 68.4896 107.911 68.5938 108.141C68.6979 108.365 68.8672 108.576 69.1016 108.773C69.3411 108.966 69.6562 109.148 70.0469 109.32C70.4375 109.487 70.9193 109.646 71.4922 109.797C72.0964 109.964 72.6328 110.148 73.1016 110.352C73.5703 110.555 73.9661 110.789 74.2891 111.055C74.612 111.315 74.8568 111.62 75.0234 111.969C75.1901 112.318 75.2734 112.724 75.2734 113.188C75.2734 113.651 75.1745 114.068 74.9766 114.438C74.7839 114.802 74.5104 115.112 74.1562 115.367C73.8073 115.622 73.3932 115.818 72.9141 115.953C72.4401 116.089 71.9219 116.156 71.3594 116.156C70.8542 116.156 70.3516 116.091 69.8516 115.961C69.3516 115.831 68.8932 115.63 68.4766 115.359C68.0651 115.083 67.7344 114.729 67.4844 114.297C67.2396 113.865 67.1172 113.349 67.1172 112.75H68.0703C68.0703 113.229 68.1667 113.633 68.3594 113.961C68.5521 114.289 68.8073 114.555 69.125 114.758C69.4479 114.961 69.8021 115.109 70.1875 115.203C70.5781 115.292 70.9688 115.336 71.3594 115.336C71.9583 115.336 72.4766 115.247 72.9141 115.07C73.3568 114.893 73.6979 114.646 73.9375 114.328C74.1823 114.005 74.3047 113.63 74.3047 113.203ZM80.25 115.352C80.6458 115.352 81.0156 115.279 81.3594 115.133C81.7083 114.982 81.9948 114.76 82.2188 114.469C82.4479 114.172 82.5781 113.81 82.6094 113.383H83.5C83.474 113.919 83.3099 114.398 83.0078 114.82C82.7109 115.237 82.3203 115.565 81.8359 115.805C81.3568 116.039 80.8281 116.156 80.25 116.156C79.6615 116.156 79.1406 116.049 78.6875 115.836C78.2396 115.622 77.8646 115.326 77.5625 114.945C77.2604 114.56 77.0312 114.112 76.875 113.602C76.724 113.086 76.6484 112.531 76.6484 111.938V111.609C76.6484 111.016 76.724 110.464 76.875 109.953C77.0312 109.438 77.2604 108.99 77.5625 108.609C77.8646 108.224 78.2396 107.924 78.6875 107.711C79.1354 107.497 79.6536 107.391 80.2422 107.391C80.8464 107.391 81.388 107.513 81.8672 107.758C82.3516 108.003 82.737 108.349 83.0234 108.797C83.3151 109.245 83.474 109.776 83.5 110.391H82.6094C82.5833 109.938 82.4635 109.547 82.25 109.219C82.0365 108.891 81.7552 108.638 81.4062 108.461C81.0573 108.284 80.6693 108.195 80.2422 108.195C79.763 108.195 79.3542 108.289 79.0156 108.477C78.6771 108.659 78.401 108.911 78.1875 109.234C77.9792 109.552 77.8255 109.917 77.7266 110.328C77.6276 110.734 77.5781 111.161 77.5781 111.609V111.938C77.5781 112.391 77.625 112.823 77.7188 113.234C77.8177 113.641 77.9714 114.003 78.1797 114.32C78.3932 114.638 78.6693 114.891 79.0078 115.078C79.3516 115.26 79.7656 115.352 80.25 115.352ZM86.3125 108.945V116H85.3828V107.547H86.2891L86.3125 108.945ZM89.3047 107.484L89.2812 108.344C89.1771 108.328 89.0755 108.315 88.9766 108.305C88.8776 108.294 88.7708 108.289 88.6562 108.289C88.25 108.289 87.8932 108.365 87.5859 108.516C87.2839 108.661 87.0286 108.867 86.8203 109.133C86.612 109.393 86.4531 109.701 86.3438 110.055C86.2344 110.404 86.1719 110.779 86.1562 111.18L85.8125 111.312C85.8125 110.76 85.8698 110.247 85.9844 109.773C86.099 109.299 86.2734 108.885 86.5078 108.531C86.7474 108.172 87.0469 107.893 87.4062 107.695C87.7708 107.492 88.1979 107.391 88.6875 107.391C88.8073 107.391 88.9245 107.401 89.0391 107.422C89.1589 107.438 89.2474 107.458 89.3047 107.484ZM91.8125 107.547V116H90.8828V107.547H91.8125ZM90.7188 105.102C90.7188 104.924 90.7734 104.776 90.8828 104.656C90.9974 104.531 91.1536 104.469 91.3516 104.469C91.5495 104.469 91.7057 104.531 91.8203 104.656C91.9401 104.776 92 104.924 92 105.102C92 105.273 91.9401 105.422 91.8203 105.547C91.7057 105.667 91.5495 105.727 91.3516 105.727C91.1536 105.727 90.9974 105.667 90.8828 105.547C90.7734 105.422 90.7188 105.273 90.7188 105.102ZM95.2891 109.172V119.25H94.3516V107.547H95.2266L95.2891 109.172ZM101.164 111.695V111.859C101.164 112.49 101.091 113.068 100.945 113.594C100.799 114.12 100.589 114.576 100.312 114.961C100.042 115.341 99.7057 115.635 99.3047 115.844C98.9036 116.052 98.4479 116.156 97.9375 116.156C97.4323 116.156 96.9818 116.078 96.5859 115.922C96.1901 115.766 95.849 115.544 95.5625 115.258C95.2812 114.966 95.0547 114.628 94.8828 114.242C94.7161 113.852 94.599 113.424 94.5312 112.961V110.797C94.6094 110.286 94.737 109.823 94.9141 109.406C95.0911 108.99 95.3177 108.63 95.5938 108.328C95.875 108.026 96.2083 107.794 96.5938 107.633C96.9792 107.471 97.4193 107.391 97.9141 107.391C98.4297 107.391 98.888 107.492 99.2891 107.695C99.6953 107.893 100.036 108.182 100.312 108.562C100.594 108.938 100.805 109.391 100.945 109.922C101.091 110.448 101.164 111.039 101.164 111.695ZM100.227 111.859V111.695C100.227 111.201 100.174 110.742 100.07 110.32C99.9714 109.898 99.8177 109.531 99.6094 109.219C99.4062 108.901 99.1458 108.654 98.8281 108.477C98.5156 108.299 98.1432 108.211 97.7109 108.211C97.263 108.211 96.8802 108.286 96.5625 108.438C96.25 108.583 95.9896 108.779 95.7812 109.023C95.5729 109.263 95.4089 109.526 95.2891 109.812C95.1693 110.099 95.0807 110.38 95.0234 110.656V113.148C95.1224 113.544 95.2812 113.911 95.5 114.25C95.7188 114.583 96.0104 114.852 96.375 115.055C96.7448 115.253 97.1953 115.352 97.7266 115.352C98.1536 115.352 98.5234 115.263 98.8359 115.086C99.1484 114.909 99.4062 114.661 99.6094 114.344C99.8177 114.026 99.9714 113.656 100.07 113.234C100.174 112.812 100.227 112.354 100.227 111.859ZM106.438 107.547V108.312H102.203V107.547H106.438ZM103.758 105.375H104.688V113.945C104.688 114.336 104.74 114.63 104.844 114.828C104.948 115.026 105.083 115.159 105.25 115.227C105.417 115.294 105.596 115.328 105.789 115.328C105.93 115.328 106.065 115.32 106.195 115.305C106.326 115.284 106.443 115.263 106.547 115.242L106.586 116.031C106.471 116.068 106.323 116.096 106.141 116.117C105.958 116.143 105.776 116.156 105.594 116.156C105.234 116.156 104.917 116.091 104.641 115.961C104.365 115.826 104.148 115.596 103.992 115.273C103.836 114.945 103.758 114.5 103.758 113.938V105.375Z" fill="white"/>
</svg>
