<svg width="142" height="142" viewBox="0 0 142 142" fill="none" xmlns="http://www.w3.org/2000/svg">
<g clip-path="url(#clip0_6_731)">
<path d="M65.4395 30C64.3702 30 63.3785 30.2782 62.5 30.8659C59.7545 32.7079 58.7094 37.1966 59.2632 42.7853C54.8222 45.0224 52 48.3165 52 52C52 55.6835 54.8222 58.9776 59.2632 61.2147C58.7097 66.8031 59.7545 71.2921 62.5 73.1341C63.3767 73.7218 64.3685 74 65.4395 74C67.7191 74 70.3537 72.6705 73 70.3896C75.6465 72.6705 78.2844 74 80.564 74C81.6332 74 82.6249 73.7218 83.5034 73.1341C86.2489 71.2921 87.2939 66.8033 86.7402 61.2147C91.1795 58.9776 94 55.6827 94 52C94 48.3165 91.1778 45.0224 86.7368 42.7853C87.2903 37.1969 86.2455 32.7079 83.5 30.8659C82.6233 30.2761 81.6315 30 80.5605 30C78.2809 30 75.6463 31.3295 73 33.6104C70.3536 31.3295 67.7182 30 65.4395 30ZM65.4395 33.5588C66.8073 33.5588 68.6162 34.4039 70.5801 35.9697C69.4254 37.2359 68.2945 38.6758 67.2065 40.2791C65.4419 40.5732 63.7781 41.0018 62.2368 41.5382C62.2285 41.414 62.2089 41.2836 62.2026 41.1609C62.0154 37.5411 62.6995 34.8428 64.0312 33.948C64.425 33.6836 64.8847 33.5588 65.4395 33.5588ZM80.5605 33.5588C81.1135 33.5588 81.575 33.6836 81.9687 33.948C83.3005 34.8408 83.9846 37.5411 83.7973 41.1609C83.791 41.2837 83.7715 41.414 83.7632 41.5382C82.2209 41.0015 80.5559 40.5732 78.79 40.2791C77.7021 38.6761 76.5746 37.2358 75.4199 35.9697C77.3837 34.4042 79.1934 33.5588 80.5605 33.5588ZM73 38.2297C73.4744 38.7314 73.9455 39.2617 74.4219 39.8422C73.9498 39.8238 73.4801 39.7985 73 39.7985C72.521 39.7985 72.0525 39.8239 71.5815 39.8422C72.0575 39.2623 72.526 38.7309 73 38.2297ZM73 43.3573C74.4502 43.3573 75.8247 43.4515 77.1289 43.6154C77.9243 44.8717 78.7081 46.1998 79.4429 47.6786C80.1471 49.0961 80.7699 50.547 81.3193 52C80.7698 53.4539 80.1476 54.907 79.4429 56.3253C78.7104 57.7999 77.9285 59.1195 77.1357 60.3726C75.7855 60.5443 74.4004 60.6427 73 60.6427C71.5498 60.6427 70.1753 60.5485 68.8711 60.3845C68.0758 59.1283 67.2919 57.8041 66.5571 56.3253C65.8525 54.907 65.2304 53.4539 64.6807 52C65.23 50.547 65.8529 49.0961 66.5571 47.6786C67.2899 46.2041 68.0713 44.8805 68.8643 43.6274C70.2145 43.4557 71.5996 43.3573 73 43.3573ZM81.3056 44.4575C82 44.6523 82.6674 44.8626 83.2949 45.097C83.1528 45.8434 82.9789 46.6041 82.7822 47.3728C82.557 46.8818 82.3386 46.3892 82.0952 45.8993C81.8447 45.3953 81.5667 44.9426 81.3056 44.4575ZM64.6909 44.4615C64.4308 44.9451 64.1544 45.3969 63.9048 45.8993C63.6614 46.3892 63.4429 46.8817 63.2178 47.3728C63.0206 46.6025 62.8439 45.8409 62.7016 45.093C63.3406 44.8584 64.0064 44.6506 64.6909 44.4615ZM59.8203 46.3997C60.189 48.2088 60.7005 50.0842 61.3584 51.996C60.7019 53.9033 60.1926 55.7752 59.8237 57.5804C56.7762 55.8703 55.0625 53.7415 55.0625 52C55.0625 50.2125 56.7283 48.1754 59.5196 46.5546C59.6148 46.4992 59.723 46.4538 59.8203 46.3997ZM86.1763 46.4196C89.2238 48.1297 90.9375 50.2585 90.9375 52C90.9375 53.7875 89.2717 55.8246 86.4805 57.4454C86.3852 57.5008 86.277 57.5462 86.1797 57.6003C85.8108 55.7901 85.3034 53.913 84.645 52C85.3007 50.0943 85.8077 48.2232 86.1763 46.4196ZM73 47.9328C71.0662 47.9328 69.5 49.7529 69.5 52C69.5 54.2471 71.0662 56.0672 73 56.0672C74.9337 56.0672 76.5 54.2471 76.5 52C76.5 49.7529 74.9337 47.9328 73 47.9328ZM63.2178 56.6272C63.443 57.1184 63.6647 57.6107 63.9082 58.1007C64.1584 58.6043 64.4336 59.0578 64.6943 59.5425C64 59.3477 63.3326 59.1374 62.7051 58.903C62.8473 58.1562 63.0209 57.3964 63.2178 56.6272ZM82.7822 56.6312C82.9791 57.4007 83.1561 58.1598 83.2983 58.907C82.6593 59.1416 81.9935 59.3494 81.3091 59.5385C81.5692 59.0549 81.8455 58.6031 82.0952 58.1007C82.3381 57.6118 82.5575 57.1212 82.7822 56.6312ZM62.2368 62.4618C63.7791 62.9986 65.4441 63.4268 67.21 63.7209C68.2983 65.3247 69.4249 66.7677 70.5801 68.0343C68.6163 69.5996 66.8072 70.4452 65.4395 70.4452C64.8865 70.4452 64.425 70.3164 64.0312 70.052C62.6995 69.1592 62.0154 66.4629 62.2026 62.8431C62.209 62.719 62.2284 62.5873 62.2368 62.4618ZM83.7632 62.4618C83.7716 62.5873 83.791 62.719 83.7973 62.8431C83.9846 66.4629 83.3005 69.1572 81.9687 70.052C81.575 70.3164 81.1153 70.4452 80.5605 70.4452C79.1928 70.4452 77.3837 69.5998 75.4199 68.0343C76.5752 66.7676 77.7049 65.3249 78.7934 63.7209C80.5581 63.4268 82.2219 62.9982 83.7632 62.4618ZM71.5781 64.1578C72.0502 64.1762 72.5198 64.2015 73 64.2015C73.4801 64.2015 73.9498 64.1762 74.4219 64.1578C73.9455 64.7383 73.4744 65.2686 73 65.7704C72.5256 65.2686 72.0545 64.7383 71.5781 64.1578Z" fill="white"/>
</g>
<rect x="0.5" y="0.5" width="141" height="141" rx="7.5" stroke="#70B966"/>
<path d="M42.4219 104.625H46.1172C46.9036 104.625 47.5859 104.753 48.1641 105.008C48.7422 105.263 49.1875 105.641 49.5 106.141C49.8177 106.635 49.9766 107.245 49.9766 107.969C49.9766 108.505 49.862 108.992 49.6328 109.43C49.4089 109.867 49.099 110.234 48.7031 110.531C48.3073 110.823 47.849 111.023 47.3281 111.133L46.9922 111.258H43.0469L43.0312 110.438H46.3359C46.9297 110.438 47.4245 110.323 47.8203 110.094C48.2161 109.865 48.513 109.562 48.7109 109.188C48.9141 108.807 49.0156 108.401 49.0156 107.969C49.0156 107.453 48.9036 107.008 48.6797 106.633C48.4609 106.253 48.1354 105.961 47.7031 105.758C47.2708 105.555 46.7422 105.453 46.1172 105.453H43.3828V116H42.4219V104.625ZM49.4453 116L46.5 110.914L47.5312 110.906L50.4688 115.898V116H49.4453ZM55.6641 116.156C55.112 116.156 54.6042 116.055 54.1406 115.852C53.6823 115.648 53.2812 115.362 52.9375 114.992C52.599 114.622 52.3359 114.185 52.1484 113.68C51.9661 113.169 51.875 112.612 51.875 112.008V111.672C51.875 111.021 51.9714 110.432 52.1641 109.906C52.3568 109.38 52.6224 108.93 52.9609 108.555C53.2995 108.18 53.6849 107.893 54.1172 107.695C54.5547 107.492 55.013 107.391 55.4922 107.391C56.0286 107.391 56.5052 107.487 56.9219 107.68C57.3385 107.867 57.6875 108.135 57.9688 108.484C58.2552 108.828 58.4714 109.237 58.6172 109.711C58.763 110.18 58.8359 110.698 58.8359 111.266V111.836H52.4375V111.039H57.9062V110.93C57.8958 110.456 57.7995 110.013 57.6172 109.602C57.4401 109.185 57.1745 108.846 56.8203 108.586C56.4661 108.326 56.0234 108.195 55.4922 108.195C55.0964 108.195 54.7318 108.279 54.3984 108.445C54.0703 108.612 53.7865 108.852 53.5469 109.164C53.3125 109.471 53.1302 109.839 53 110.266C52.875 110.688 52.8125 111.156 52.8125 111.672V112.008C52.8125 112.477 52.8802 112.914 53.0156 113.32C53.1562 113.721 53.3542 114.076 53.6094 114.383C53.8698 114.69 54.1771 114.93 54.5312 115.102C54.8854 115.273 55.276 115.359 55.7031 115.359C56.2031 115.359 56.6458 115.268 57.0312 115.086C57.4167 114.898 57.763 114.604 58.0703 114.203L58.6562 114.656C58.474 114.927 58.2448 115.177 57.9688 115.406C57.6979 115.635 57.3724 115.818 56.9922 115.953C56.612 116.089 56.1693 116.156 55.6641 116.156ZM65.8203 114.484V110.125C65.8203 109.724 65.737 109.378 65.5703 109.086C65.4036 108.794 65.1589 108.57 64.8359 108.414C64.513 108.258 64.1146 108.18 63.6406 108.18C63.2031 108.18 62.8125 108.258 62.4688 108.414C62.1302 108.565 61.862 108.771 61.6641 109.031C61.4714 109.286 61.375 109.57 61.375 109.883L60.4375 109.875C60.4375 109.557 60.5156 109.25 60.6719 108.953C60.8281 108.656 61.0495 108.391 61.3359 108.156C61.6224 107.922 61.9635 107.737 62.3594 107.602C62.7604 107.461 63.2005 107.391 63.6797 107.391C64.2839 107.391 64.8151 107.492 65.2734 107.695C65.737 107.898 66.099 108.203 66.3594 108.609C66.6198 109.016 66.75 109.526 66.75 110.141V114.227C66.75 114.518 66.7708 114.82 66.8125 115.133C66.8594 115.445 66.9245 115.703 67.0078 115.906V116H66.0156C65.9531 115.812 65.9036 115.578 65.8672 115.297C65.8359 115.01 65.8203 114.74 65.8203 114.484ZM66.0391 111.078L66.0547 111.797H64.2188C63.7396 111.797 63.3099 111.841 62.9297 111.93C62.5547 112.013 62.237 112.138 61.9766 112.305C61.7161 112.466 61.5156 112.661 61.375 112.891C61.2396 113.12 61.1719 113.38 61.1719 113.672C61.1719 113.974 61.2474 114.25 61.3984 114.5C61.5547 114.75 61.7734 114.951 62.0547 115.102C62.3411 115.247 62.6797 115.32 63.0703 115.32C63.5911 115.32 64.0495 115.224 64.4453 115.031C64.8464 114.839 65.1771 114.586 65.4375 114.273C65.6979 113.961 65.8724 113.62 65.9609 113.25L66.3672 113.789C66.2995 114.049 66.1745 114.318 65.9922 114.594C65.8151 114.865 65.5833 115.12 65.2969 115.359C65.0104 115.594 64.6719 115.786 64.2812 115.938C63.8958 116.083 63.4583 116.156 62.9688 116.156C62.4167 116.156 61.9349 116.052 61.5234 115.844C61.1172 115.635 60.7995 115.352 60.5703 114.992C60.3464 114.628 60.2344 114.216 60.2344 113.758C60.2344 113.341 60.3229 112.969 60.5 112.641C60.6771 112.307 60.9323 112.026 61.2656 111.797C61.6042 111.562 62.0104 111.385 62.4844 111.266C62.9635 111.141 63.5 111.078 64.0938 111.078H66.0391ZM72.375 115.352C72.7708 115.352 73.1406 115.279 73.4844 115.133C73.8333 114.982 74.1198 114.76 74.3438 114.469C74.5729 114.172 74.7031 113.81 74.7344 113.383H75.625C75.599 113.919 75.4349 114.398 75.1328 114.82C74.8359 115.237 74.4453 115.565 73.9609 115.805C73.4818 116.039 72.9531 116.156 72.375 116.156C71.7865 116.156 71.2656 116.049 70.8125 115.836C70.3646 115.622 69.9896 115.326 69.6875 114.945C69.3854 114.56 69.1562 114.112 69 113.602C68.849 113.086 68.7734 112.531 68.7734 111.938V111.609C68.7734 111.016 68.849 110.464 69 109.953C69.1562 109.438 69.3854 108.99 69.6875 108.609C69.9896 108.224 70.3646 107.924 70.8125 107.711C71.2604 107.497 71.7786 107.391 72.3672 107.391C72.9714 107.391 73.513 107.513 73.9922 107.758C74.4766 108.003 74.862 108.349 75.1484 108.797C75.4401 109.245 75.599 109.776 75.625 110.391H74.7344C74.7083 109.938 74.5885 109.547 74.375 109.219C74.1615 108.891 73.8802 108.638 73.5312 108.461C73.1823 108.284 72.7943 108.195 72.3672 108.195C71.888 108.195 71.4792 108.289 71.1406 108.477C70.8021 108.659 70.526 108.911 70.3125 109.234C70.1042 109.552 69.9505 109.917 69.8516 110.328C69.7526 110.734 69.7031 111.161 69.7031 111.609V111.938C69.7031 112.391 69.75 112.823 69.8438 113.234C69.9427 113.641 70.0964 114.003 70.3047 114.32C70.5182 114.638 70.7943 114.891 71.1328 115.078C71.4766 115.26 71.8906 115.352 72.375 115.352ZM80.7031 107.547V108.312H76.4688V107.547H80.7031ZM78.0234 105.375H78.9531V113.945C78.9531 114.336 79.0052 114.63 79.1094 114.828C79.2135 115.026 79.349 115.159 79.5156 115.227C79.6823 115.294 79.862 115.328 80.0547 115.328C80.1953 115.328 80.3307 115.32 80.4609 115.305C80.5911 115.284 80.7083 115.263 80.8125 115.242L80.8516 116.031C80.737 116.068 80.5885 116.096 80.4062 116.117C80.224 116.143 80.0417 116.156 79.8594 116.156C79.5 116.156 79.1823 116.091 78.9062 115.961C78.6302 115.826 78.4141 115.596 78.2578 115.273C78.1016 114.945 78.0234 114.5 78.0234 113.938V105.375ZM87.9062 112.609V104.625H88.8672V112.609C88.8672 113.375 88.7161 114.021 88.4141 114.547C88.1172 115.073 87.7109 115.474 87.1953 115.75C86.6797 116.021 86.0911 116.156 85.4297 116.156C84.7526 116.156 84.1536 116.036 83.6328 115.797C83.1172 115.557 82.7161 115.195 82.4297 114.711C82.1432 114.221 82 113.604 82 112.859H82.9609C82.9609 113.406 83.0573 113.865 83.25 114.234C83.4479 114.599 83.7318 114.875 84.1016 115.062C84.4714 115.245 84.9141 115.336 85.4297 115.336C85.8932 115.336 86.3099 115.234 86.6797 115.031C87.0547 114.823 87.3516 114.518 87.5703 114.117C87.7943 113.711 87.9062 113.208 87.9062 112.609ZM98.1328 113.203C98.1328 112.891 98.0807 112.612 97.9766 112.367C97.8724 112.122 97.7005 111.904 97.4609 111.711C97.2266 111.513 96.9089 111.331 96.5078 111.164C96.112 110.992 95.6172 110.823 95.0234 110.656C94.4557 110.495 93.9427 110.318 93.4844 110.125C93.026 109.932 92.6328 109.711 92.3047 109.461C91.9818 109.211 91.7344 108.919 91.5625 108.586C91.3906 108.247 91.3047 107.854 91.3047 107.406C91.3047 106.969 91.3984 106.57 91.5859 106.211C91.7734 105.852 92.0365 105.542 92.375 105.281C92.7188 105.021 93.1224 104.82 93.5859 104.68C94.0547 104.539 94.5677 104.469 95.125 104.469C95.9219 104.469 96.6094 104.62 97.1875 104.922C97.7708 105.224 98.2214 105.633 98.5391 106.148C98.862 106.659 99.0234 107.232 99.0234 107.867H98.0625C98.0625 107.372 97.9453 106.932 97.7109 106.547C97.4818 106.156 97.1484 105.852 96.7109 105.633C96.2786 105.409 95.75 105.297 95.125 105.297C94.5 105.297 93.974 105.393 93.5469 105.586C93.125 105.773 92.8047 106.026 92.5859 106.344C92.3724 106.656 92.2656 107.005 92.2656 107.391C92.2656 107.661 92.3177 107.911 92.4219 108.141C92.526 108.365 92.6953 108.576 92.9297 108.773C93.1693 108.966 93.4844 109.148 93.875 109.32C94.2656 109.487 94.7474 109.646 95.3203 109.797C95.9245 109.964 96.4609 110.148 96.9297 110.352C97.3984 110.555 97.7943 110.789 98.1172 111.055C98.4401 111.315 98.6849 111.62 98.8516 111.969C99.0182 112.318 99.1016 112.724 99.1016 113.188C99.1016 113.651 99.0026 114.068 98.8047 114.438C98.612 114.802 98.3385 115.112 97.9844 115.367C97.6354 115.622 97.2214 115.818 96.7422 115.953C96.2682 116.089 95.75 116.156 95.1875 116.156C94.6823 116.156 94.1797 116.091 93.6797 115.961C93.1797 115.831 92.7214 115.63 92.3047 115.359C91.8932 115.083 91.5625 114.729 91.3125 114.297C91.0677 113.865 90.9453 113.349 90.9453 112.75H91.8984C91.8984 113.229 91.9948 113.633 92.1875 113.961C92.3802 114.289 92.6354 114.555 92.9531 114.758C93.276 114.961 93.6302 115.109 94.0156 115.203C94.4062 115.292 94.7969 115.336 95.1875 115.336C95.7865 115.336 96.3047 115.247 96.7422 115.07C97.1849 114.893 97.526 114.646 97.7656 114.328C98.0104 114.005 98.1328 113.63 98.1328 113.203Z" fill="white"/>
<defs>
<clipPath id="clip0_6_731">
<rect width="50" height="50" fill="white" transform="translate(46 27)"/>
</clipPath>
</defs>
</svg>
