<svg width="142" height="142" viewBox="0 0 142 142" fill="none" xmlns="http://www.w3.org/2000/svg">
<path d="M48 43.0836H55.92V79.5684H62.4385V43.0836H70.5265V35H48V43.0836Z" fill="white"/>
<path d="M81.4709 47.0559C81.4709 44.5155 82.7081 42.1367 86.1335 42.1367C89.5589 42.1367 92.5947 45.0893 92.5947 45.0893L92.82 36.404C92.82 36.404 74.7309 29.1895 74.7309 47.4681C74.7309 60.9111 87.1454 60.9111 87.1454 66.9724C87.1454 67.5462 87.3135 71.7245 82.9334 71.7245C78.5534 71.7245 74.8989 67.7078 74.8989 67.7078V77.4627C74.8989 77.4627 94 86.4766 94 66.1534C94 52.9556 81.4709 53.613 81.4709 47.0559Z" fill="white"/>
<rect x="0.5" y="0.5" width="141" height="141" rx="7.5" stroke="#70B966"/>
<path d="M38.2578 104.625V116H37.3047V104.625H38.2578ZM42.1562 104.625V105.453H33.4141V104.625H42.1562ZM45.7344 115.156L48.3672 107.547H49.375L45.7969 117.359C45.724 117.552 45.6302 117.766 45.5156 118C45.4062 118.234 45.2604 118.458 45.0781 118.672C44.901 118.891 44.6771 119.068 44.4062 119.203C44.1406 119.344 43.8151 119.414 43.4297 119.414C43.3307 119.414 43.2031 119.401 43.0469 119.375C42.8958 119.354 42.7865 119.333 42.7188 119.312L42.7109 118.523C42.7682 118.539 42.8516 118.552 42.9609 118.562C43.0703 118.573 43.1458 118.578 43.1875 118.578C43.526 118.578 43.8099 118.521 44.0391 118.406C44.2734 118.292 44.4688 118.12 44.625 117.891C44.7812 117.667 44.9193 117.385 45.0391 117.047L45.7344 115.156ZM43.2734 107.547L45.9688 114.805L46.2188 115.781L45.5391 116.164L42.2578 107.547H43.2734ZM51.7578 109.172V119.25H50.8203V107.547H51.6953L51.7578 109.172ZM57.6328 111.695V111.859C57.6328 112.49 57.5599 113.068 57.4141 113.594C57.2682 114.12 57.0573 114.576 56.7812 114.961C56.5104 115.341 56.1745 115.635 55.7734 115.844C55.3724 116.052 54.9167 116.156 54.4062 116.156C53.901 116.156 53.4505 116.078 53.0547 115.922C52.6589 115.766 52.3177 115.544 52.0312 115.258C51.75 114.966 51.5234 114.628 51.3516 114.242C51.1849 113.852 51.0677 113.424 51 112.961V110.797C51.0781 110.286 51.2057 109.823 51.3828 109.406C51.5599 108.99 51.7865 108.63 52.0625 108.328C52.3438 108.026 52.6771 107.794 53.0625 107.633C53.4479 107.471 53.888 107.391 54.3828 107.391C54.8984 107.391 55.3568 107.492 55.7578 107.695C56.1641 107.893 56.5052 108.182 56.7812 108.562C57.0625 108.938 57.2734 109.391 57.4141 109.922C57.5599 110.448 57.6328 111.039 57.6328 111.695ZM56.6953 111.859V111.695C56.6953 111.201 56.6432 110.742 56.5391 110.32C56.4401 109.898 56.2865 109.531 56.0781 109.219C55.875 108.901 55.6146 108.654 55.2969 108.477C54.9844 108.299 54.612 108.211 54.1797 108.211C53.7318 108.211 53.349 108.286 53.0312 108.438C52.7188 108.583 52.4583 108.779 52.25 109.023C52.0417 109.263 51.8776 109.526 51.7578 109.812C51.638 110.099 51.5495 110.38 51.4922 110.656V113.148C51.5911 113.544 51.75 113.911 51.9688 114.25C52.1875 114.583 52.4792 114.852 52.8438 115.055C53.2135 115.253 53.6641 115.352 54.1953 115.352C54.6224 115.352 54.9922 115.263 55.3047 115.086C55.6172 114.909 55.875 114.661 56.0781 114.344C56.2865 114.026 56.4401 113.656 56.5391 113.234C56.6432 112.812 56.6953 112.354 56.6953 111.859ZM62.9766 116.156C62.4245 116.156 61.9167 116.055 61.4531 115.852C60.9948 115.648 60.5938 115.362 60.25 114.992C59.9115 114.622 59.6484 114.185 59.4609 113.68C59.2786 113.169 59.1875 112.612 59.1875 112.008V111.672C59.1875 111.021 59.2839 110.432 59.4766 109.906C59.6693 109.38 59.9349 108.93 60.2734 108.555C60.612 108.18 60.9974 107.893 61.4297 107.695C61.8672 107.492 62.3255 107.391 62.8047 107.391C63.3411 107.391 63.8177 107.487 64.2344 107.68C64.651 107.867 65 108.135 65.2812 108.484C65.5677 108.828 65.7839 109.237 65.9297 109.711C66.0755 110.18 66.1484 110.698 66.1484 111.266V111.836H59.75V111.039H65.2188V110.93C65.2083 110.456 65.112 110.013 64.9297 109.602C64.7526 109.185 64.487 108.846 64.1328 108.586C63.7786 108.326 63.3359 108.195 62.8047 108.195C62.4089 108.195 62.0443 108.279 61.7109 108.445C61.3828 108.612 61.099 108.852 60.8594 109.164C60.625 109.471 60.4427 109.839 60.3125 110.266C60.1875 110.688 60.125 111.156 60.125 111.672V112.008C60.125 112.477 60.1927 112.914 60.3281 113.32C60.4688 113.721 60.6667 114.076 60.9219 114.383C61.1823 114.69 61.4896 114.93 61.8438 115.102C62.1979 115.273 62.5885 115.359 63.0156 115.359C63.5156 115.359 63.9583 115.268 64.3438 115.086C64.7292 114.898 65.0755 114.604 65.3828 114.203L65.9688 114.656C65.7865 114.927 65.5573 115.177 65.2812 115.406C65.0104 115.635 64.6849 115.818 64.3047 115.953C63.9245 116.089 63.4818 116.156 62.9766 116.156ZM74.6484 113.203C74.6484 112.891 74.5964 112.612 74.4922 112.367C74.388 112.122 74.2161 111.904 73.9766 111.711C73.7422 111.513 73.4245 111.331 73.0234 111.164C72.6276 110.992 72.1328 110.823 71.5391 110.656C70.9714 110.495 70.4583 110.318 70 110.125C69.5417 109.932 69.1484 109.711 68.8203 109.461C68.4974 109.211 68.25 108.919 68.0781 108.586C67.9062 108.247 67.8203 107.854 67.8203 107.406C67.8203 106.969 67.9141 106.57 68.1016 106.211C68.2891 105.852 68.5521 105.542 68.8906 105.281C69.2344 105.021 69.638 104.82 70.1016 104.68C70.5703 104.539 71.0833 104.469 71.6406 104.469C72.4375 104.469 73.125 104.62 73.7031 104.922C74.2865 105.224 74.737 105.633 75.0547 106.148C75.3776 106.659 75.5391 107.232 75.5391 107.867H74.5781C74.5781 107.372 74.4609 106.932 74.2266 106.547C73.9974 106.156 73.6641 105.852 73.2266 105.633C72.7943 105.409 72.2656 105.297 71.6406 105.297C71.0156 105.297 70.4896 105.393 70.0625 105.586C69.6406 105.773 69.3203 106.026 69.1016 106.344C68.888 106.656 68.7812 107.005 68.7812 107.391C68.7812 107.661 68.8333 107.911 68.9375 108.141C69.0417 108.365 69.2109 108.576 69.4453 108.773C69.6849 108.966 70 109.148 70.3906 109.32C70.7812 109.487 71.263 109.646 71.8359 109.797C72.4401 109.964 72.9766 110.148 73.4453 110.352C73.9141 110.555 74.3099 110.789 74.6328 111.055C74.9557 111.315 75.2005 111.62 75.3672 111.969C75.5339 112.318 75.6172 112.724 75.6172 113.188C75.6172 113.651 75.5182 114.068 75.3203 114.438C75.1276 114.802 74.8542 115.112 74.5 115.367C74.151 115.622 73.737 115.818 73.2578 115.953C72.7839 116.089 72.2656 116.156 71.7031 116.156C71.1979 116.156 70.6953 116.091 70.1953 115.961C69.6953 115.831 69.237 115.63 68.8203 115.359C68.4089 115.083 68.0781 114.729 67.8281 114.297C67.5833 113.865 67.4609 113.349 67.4609 112.75H68.4141C68.4141 113.229 68.5104 113.633 68.7031 113.961C68.8958 114.289 69.151 114.555 69.4688 114.758C69.7917 114.961 70.1458 115.109 70.5312 115.203C70.9219 115.292 71.3125 115.336 71.7031 115.336C72.3021 115.336 72.8203 115.247 73.2578 115.07C73.7005 114.893 74.0417 114.646 74.2812 114.328C74.526 114.005 74.6484 113.63 74.6484 113.203ZM80.5938 115.352C80.9896 115.352 81.3594 115.279 81.7031 115.133C82.0521 114.982 82.3385 114.76 82.5625 114.469C82.7917 114.172 82.9219 113.81 82.9531 113.383H83.8438C83.8177 113.919 83.6536 114.398 83.3516 114.82C83.0547 115.237 82.6641 115.565 82.1797 115.805C81.7005 116.039 81.1719 116.156 80.5938 116.156C80.0052 116.156 79.4844 116.049 79.0312 115.836C78.5833 115.622 78.2083 115.326 77.9062 114.945C77.6042 114.56 77.375 114.112 77.2188 113.602C77.0677 113.086 76.9922 112.531 76.9922 111.938V111.609C76.9922 111.016 77.0677 110.464 77.2188 109.953C77.375 109.438 77.6042 108.99 77.9062 108.609C78.2083 108.224 78.5833 107.924 79.0312 107.711C79.4792 107.497 79.9974 107.391 80.5859 107.391C81.1901 107.391 81.7318 107.513 82.2109 107.758C82.6953 108.003 83.0807 108.349 83.3672 108.797C83.6589 109.245 83.8177 109.776 83.8438 110.391H82.9531C82.9271 109.938 82.8073 109.547 82.5938 109.219C82.3802 108.891 82.099 108.638 81.75 108.461C81.401 108.284 81.013 108.195 80.5859 108.195C80.1068 108.195 79.6979 108.289 79.3594 108.477C79.0208 108.659 78.7448 108.911 78.5312 109.234C78.3229 109.552 78.1693 109.917 78.0703 110.328C77.9714 110.734 77.9219 111.161 77.9219 111.609V111.938C77.9219 112.391 77.9688 112.823 78.0625 113.234C78.1615 113.641 78.3151 114.003 78.5234 114.32C78.737 114.638 79.013 114.891 79.3516 115.078C79.6953 115.26 80.1094 115.352 80.5938 115.352ZM86.6562 108.945V116H85.7266V107.547H86.6328L86.6562 108.945ZM89.6484 107.484L89.625 108.344C89.5208 108.328 89.4193 108.315 89.3203 108.305C89.2214 108.294 89.1146 108.289 89 108.289C88.5938 108.289 88.237 108.365 87.9297 108.516C87.6276 108.661 87.3724 108.867 87.1641 109.133C86.9557 109.393 86.7969 109.701 86.6875 110.055C86.5781 110.404 86.5156 110.779 86.5 111.18L86.1562 111.312C86.1562 110.76 86.2135 110.247 86.3281 109.773C86.4427 109.299 86.6172 108.885 86.8516 108.531C87.0911 108.172 87.3906 107.893 87.75 107.695C88.1146 107.492 88.5417 107.391 89.0312 107.391C89.151 107.391 89.2682 107.401 89.3828 107.422C89.5026 107.438 89.5911 107.458 89.6484 107.484ZM92.1562 107.547V116H91.2266V107.547H92.1562ZM91.0625 105.102C91.0625 104.924 91.1172 104.776 91.2266 104.656C91.3411 104.531 91.4974 104.469 91.6953 104.469C91.8932 104.469 92.0495 104.531 92.1641 104.656C92.2839 104.776 92.3438 104.924 92.3438 105.102C92.3438 105.273 92.2839 105.422 92.1641 105.547C92.0495 105.667 91.8932 105.727 91.6953 105.727C91.4974 105.727 91.3411 105.667 91.2266 105.547C91.1172 105.422 91.0625 105.273 91.0625 105.102ZM95.6328 109.172V119.25H94.6953V107.547H95.5703L95.6328 109.172ZM101.508 111.695V111.859C101.508 112.49 101.435 113.068 101.289 113.594C101.143 114.12 100.932 114.576 100.656 114.961C100.385 115.341 100.049 115.635 99.6484 115.844C99.2474 116.052 98.7917 116.156 98.2812 116.156C97.776 116.156 97.3255 116.078 96.9297 115.922C96.5339 115.766 96.1927 115.544 95.9062 115.258C95.625 114.966 95.3984 114.628 95.2266 114.242C95.0599 113.852 94.9427 113.424 94.875 112.961V110.797C94.9531 110.286 95.0807 109.823 95.2578 109.406C95.4349 108.99 95.6615 108.63 95.9375 108.328C96.2188 108.026 96.5521 107.794 96.9375 107.633C97.3229 107.471 97.763 107.391 98.2578 107.391C98.7734 107.391 99.2318 107.492 99.6328 107.695C100.039 107.893 100.38 108.182 100.656 108.562C100.938 108.938 101.148 109.391 101.289 109.922C101.435 110.448 101.508 111.039 101.508 111.695ZM100.57 111.859V111.695C100.57 111.201 100.518 110.742 100.414 110.32C100.315 109.898 100.161 109.531 99.9531 109.219C99.75 108.901 99.4896 108.654 99.1719 108.477C98.8594 108.299 98.487 108.211 98.0547 108.211C97.6068 108.211 97.224 108.286 96.9062 108.438C96.5938 108.583 96.3333 108.779 96.125 109.023C95.9167 109.263 95.7526 109.526 95.6328 109.812C95.513 110.099 95.4245 110.38 95.3672 110.656V113.148C95.4661 113.544 95.625 113.911 95.8438 114.25C96.0625 114.583 96.3542 114.852 96.7188 115.055C97.0885 115.253 97.5391 115.352 98.0703 115.352C98.4974 115.352 98.8672 115.263 99.1797 115.086C99.4922 114.909 99.75 114.661 99.9531 114.344C100.161 114.026 100.315 113.656 100.414 113.234C100.518 112.812 100.57 112.354 100.57 111.859ZM106.781 107.547V108.312H102.547V107.547H106.781ZM104.102 105.375H105.031V113.945C105.031 114.336 105.083 114.63 105.188 114.828C105.292 115.026 105.427 115.159 105.594 115.227C105.76 115.294 105.94 115.328 106.133 115.328C106.273 115.328 106.409 115.32 106.539 115.305C106.669 115.284 106.786 115.263 106.891 115.242L106.93 116.031C106.815 116.068 106.667 116.096 106.484 116.117C106.302 116.143 106.12 116.156 105.938 116.156C105.578 116.156 105.26 116.091 104.984 115.961C104.708 115.826 104.492 115.596 104.336 115.273C104.18 114.945 104.102 114.5 104.102 113.938V105.375Z" fill="white"/>
</svg>
